<svg aria-hidden="true" style="position: absolute; width: 0; height: 0; overflow: hidden;" version="1.1" xmlns="http://www.w3.org/2000/svg" xmlns:xlink="http://www.w3.org/1999/xlink">
<defs>
<symbol id="icon-spinner9" viewBox="0 0 32 32">
<path d="M16 0c-8.711 0-15.796 6.961-15.995 15.624 0.185-7.558 5.932-13.624 12.995-13.624 7.18 0 13 6.268 13 14 0 1.657 1.343 3 3 3s3-1.343 3-3c0-8.837-7.163-16-16-16zM16 32c8.711 0 15.796-6.961 15.995-15.624-0.185 7.558-5.932 13.624-12.995 13.624-7.18 0-13-6.268-13-14 0-1.657-1.343-3-3-3s-3 1.343-3 3c0 8.837 7.163 16 16 16z"></path>
</symbol>
<symbol id="icon-eye-plus" viewBox="0 0 32 32">
<path d="M32 4h-4v-4h-4v4h-4v4h4v4h4v-4h4z"></path>
<path d="M26.996 13.938c0.576 0.64 1.1 1.329 1.563 2.062-1.197 1.891-2.79 3.498-4.67 4.697-2.362 1.507-5.090 2.303-7.889 2.303s-5.527-0.796-7.889-2.303c-1.88-1.199-3.473-2.805-4.67-4.697 1.197-1.891 2.79-3.498 4.67-4.697 0.122-0.078 0.246-0.154 0.371-0.228-0.311 0.854-0.482 1.776-0.482 2.737 0 4.418 3.582 8 8 8s8-3.582 8-8c0-0.022-0.001-0.043-0.001-0.065-3.415-0.879-5.947-3.957-5.998-7.635-0.657-0.074-1.325-0.113-2.001-0.113-6.979 0-13.028 4.064-16 10 2.972 5.936 9.021 10 16 10s13.027-4.064 16-10c-0.551-1.101-1.209-2.137-1.958-3.095-0.915 0.537-1.946 0.897-3.046 1.034zM13 10c1.657 0 3 1.343 3 3s-1.343 3-3 3-3-1.343-3-3 1.343-3 3-3z"></path>
</symbol>
<symbol id="icon-investment" viewBox="0 0 32 32">
<path d="M16.44 11.83c-0.124 0.038-0.266 0.060-0.413 0.060-0.013 0-0.026-0-0.039-0.001l0.002 0h-0.24c-0.075-0.015-0.142-0.040-0.204-0.072l0.004 0.002c-0.065-0.030-0.121-0.064-0.173-0.102l0.003 0.002-0.15-0.1c-0.031-0.009-0.068-0.014-0.105-0.014s-0.073 0.005-0.108 0.014l0.003-0.001h-1.56c-0.003-0-0.007-0-0.010-0-0.094 0-0.17 0.076-0.17 0.17 0 0.004 0 0.007 0 0.011l-0-0.001c0.008 0.276 0.092 0.531 0.233 0.745l-0.003-0.005c0.162 0.256 0.382 0.463 0.641 0.605l0.009 0.005c0.315 0.177 0.684 0.3 1.075 0.349l0.015 0.001v0.5c0.005 0.062 0.030 0.118 0.070 0.16l-0-0c0.043 0.037 0.099 0.059 0.16 0.060h1c0.002 0 0.003 0 0.005 0 0.060 0 0.114-0.023 0.155-0.060l-0 0c0.036-0.043 0.058-0.099 0.060-0.16v-0.57c0.394-0.070 0.746-0.192 1.071-0.36l-0.021 0.010c0.29-0.16 0.528-0.379 0.705-0.643l0.005-0.007c0.163-0.245 0.26-0.545 0.26-0.869 0-0.008-0-0.015-0-0.023v0.001c0-0.014 0.001-0.031 0.001-0.048 0-0.314-0.086-0.608-0.235-0.86l0.004 0.008c-0.177-0.258-0.422-0.458-0.709-0.576l-0.011-0.004c-0.386-0.156-0.834-0.266-1.302-0.309l-0.018-0.001-0.57-0.1c-0.104-0.017-0.195-0.059-0.271-0.121l0.001 0.001c-0.043-0.031-0.070-0.081-0.070-0.137 0-0.001 0-0.002 0-0.003v0c0.001-0.070 0.036-0.132 0.089-0.17l0.001-0c0.074-0.039 0.162-0.062 0.256-0.062 0.016 0 0.031 0.001 0.046 0.002l-0.002-0c0.007-0 0.014-0 0.022-0 0.094 0 0.183 0.022 0.261 0.062l-0.003-0.002c0.062 0.020 0.115 0.051 0.16 0.090l-0-0c0.040 0.039 0.087 0.072 0.137 0.098l0.003 0.002c0.029 0.006 0.061 0.009 0.095 0.009s0.066-0.003 0.098-0.010l-0.003 0.001h1.64c0.018 0.006 0.039 0.009 0.060 0.009s0.042-0.003 0.061-0.009l-0.002 0c0.031-0.031 0.050-0.073 0.050-0.121 0-0.003-0-0.007-0-0.010l0 0c-0.014-0.234-0.094-0.447-0.222-0.623l0.002 0.003c-0.161-0.242-0.365-0.442-0.602-0.595l-0.008-0.005c-0.285-0.192-0.622-0.332-0.984-0.398l-0.016-0.002v-0.6c-0.005-0.062-0.030-0.118-0.070-0.16l0 0c-0.041-0.037-0.095-0.060-0.155-0.060-0.002 0-0.004 0-0.005 0h-1c-0.061 0.001-0.117 0.023-0.16 0.060l0-0c-0.040 0.042-0.066 0.098-0.070 0.159l-0 0.001v0.58c-0.519 0.073-0.975 0.299-1.331 0.631l0.001-0.001c-0.309 0.299-0.5 0.716-0.5 1.179 0 0.007 0 0.015 0 0.022v-0.001c-0 0.012-0.001 0.027-0.001 0.042 0 0.327 0.097 0.63 0.264 0.884l-0.004-0.006c0.188 0.258 0.438 0.459 0.729 0.586l0.011 0.004c0.326 0.143 0.704 0.248 1.1 0.298l0.020 0.002c0.28 0 0.49 0.070 0.65 0.1 0.121 0.027 0.228 0.068 0.326 0.123l-0.006-0.003c0.054 0.038 0.089 0.1 0.090 0.17v0c0.030 0.060-0.020 0.12-0.13 0.16z"></path>
<path d="M18.88 21c-0.705 0.088-1.341 0.319-1.901 0.662l0.021-0.012v-1.71c4.539-0.503 8.037-4.317 8.037-8.948 0-4.971-4.029-9-9-9-2.155 0-4.134 0.758-5.683 2.021l0.016-0.013c-0.23 0.186-0.377 0.468-0.377 0.785 0 0.556 0.451 1.007 1.007 1.007 0.239 0 0.459-0.084 0.632-0.223l-0.002 0.002c1.178-0.976 2.705-1.569 4.37-1.57h0c3.866 0 7 3.134 7 7s-3.134 7-7 7c-3.866 0-7-3.134-7-7v0c-0-0.007-0-0.014-0-0.022 0-0.937 0.187-1.829 0.527-2.643l-0.017 0.045c0.047-0.112 0.075-0.243 0.075-0.38 0-0.555-0.45-1.005-1.005-1.005-0.418 0-0.776 0.255-0.928 0.618l-0.002 0.007c-0.415 0.999-0.657 2.159-0.657 3.375 0 4.621 3.482 8.428 7.965 8.941l0.041 0.004v1.73c-0.537-0.342-1.174-0.58-1.857-0.668l-0.023-0.002c-0.173-0.021-0.374-0.032-0.577-0.032-1.866 0-3.501 0.988-4.41 2.47l-0.013 0.023c-0.095 0.15-0.152 0.334-0.152 0.53s0.057 0.38 0.154 0.534l-0.002-0.004c0.93 1.493 2.56 2.474 4.419 2.48h0.001c0.087 0.007 0.188 0.011 0.29 0.011s0.203-0.004 0.303-0.012l-0.013 0.001c0.706-0.090 1.343-0.328 1.899-0.681l-0.019 0.011v2.67c0 0.552 0.448 1 1 1s1-0.448 1-1v0-2.64c0.539 0.334 1.175 0.568 1.856 0.657l0.024 0.003c0.087 0.005 0.188 0.007 0.29 0.007s0.203-0.003 0.304-0.008l-0.014 0.001c1.855-0.022 3.473-1.012 4.377-2.487l0.013-0.023c0.093-0.149 0.149-0.331 0.149-0.525s-0.055-0.376-0.151-0.529l0.002 0.004c-0.92-1.503-2.552-2.49-4.415-2.49-0.195 0-0.388 0.011-0.578 0.032l0.023-0.002zM12.88 25c-0.1 0.011-0.216 0.018-0.333 0.018-0.909 0-1.727-0.392-2.295-1.015l-0.002-0.003c0.574-0.626 1.396-1.017 2.309-1.017 0.113 0 0.225 0.006 0.335 0.018l-0.014-0.001c0.748 0.109 1.396 0.472 1.867 0.997l0.003 0.003c-0.474 0.528-1.122 0.891-1.853 0.998l-0.017 0.002zM19.12 25c-0.748-0.109-1.396-0.472-1.867-0.997l-0.003-0.003c0.552-0.624 1.355-1.016 2.25-1.016s1.698 0.392 2.247 1.013l0.003 0.003c-0.576 0.626-1.399 1.016-2.313 1.016-0.112 0-0.222-0.006-0.331-0.017l0.014 0.001z"></path>
</symbol>
<symbol id="icon-piggy" viewBox="0 0 32 32">
<path d="M29.58 13.39c-0.163-0.119-0.366-0.19-0.587-0.19-0.112 0-0.22 0.018-0.32 0.052l0.007-0.002c-0.251 0.122-0.546 0.193-0.857 0.193-0.238 0-0.465-0.041-0.677-0.117l0.014 0.004c-0.32-0.18-0.44-0.62-0.64-1.39-0.219-1.171-0.75-2.192-1.503-3.004l0.003 0.004c-0.615-0.617-1.384-1.081-2.243-1.331l-0.037-0.009-1-2.92c-0.138-0.398-0.51-0.679-0.947-0.679-0.274 0-0.522 0.11-0.703 0.289l0-0-3.16 3.1q-0.39-0.060-0.87-0.090c-0.345-0.028-0.746-0.044-1.151-0.044-0.875 0-1.733 0.074-2.568 0.216l0.090-0.013c-1.050 0.16-1.981 0.39-2.877 0.694l0.117-0.034c-1.924 0.633-3.557 1.705-4.843 3.102l-0.007 0.008c-1.22 1.389-2.117 3.092-2.555 4.972l-0.015 0.078c-0.158 0.752-0.248 1.615-0.248 2.5s0.090 1.748 0.262 2.582l-0.014-0.082c0.425 2.697 1.282 5.12 2.507 7.311l-0.057-0.111c0.173 0.312 0.501 0.52 0.877 0.52 0.001 0 0.002 0 0.003 0h3.51c0.552 0 1-0.448 1-1v0-2.62c0.716 0.279 1.545 0.471 2.41 0.538l0.030 0.002c0.196 0.016 0.424 0.025 0.654 0.025 1.117 0 2.184-0.211 3.165-0.595l-0.059 0.020v2.63c0 0.552 0.448 1 1 1v0h3.51c0.002 0 0.005 0 0.007 0 0.51 0 0.931-0.382 0.992-0.875l0-0.005c0.268-2.124 0.668-4.017 1.206-5.851l-0.066 0.261c0.133-0.723 0.455-1.356 0.913-1.863l-0.003 0.003c0.665-0.551 1.527-0.886 2.468-0.886 0.124 0 0.247 0.006 0.368 0.017l-0.015-0.001h2.33c0.552 0 1-0.448 1-1v0-4.6c-0.002-0.333-0.166-0.627-0.417-0.808l-0.003-0.002zM28 17.8h-1.31c-0.118-0.009-0.257-0.013-0.396-0.013-1.475 0-2.823 0.547-3.851 1.449l0.007-0.006c-0.714 0.742-1.226 1.684-1.444 2.734l-0.006 0.036c-0.422 1.381-0.799 3.071-1.055 4.799l-0.024 0.201h-1.63v-3.22c0-0.002 0-0.005 0-0.008 0-0.372-0.203-0.697-0.505-0.869l-0.005-0.003c-0.145-0.079-0.317-0.125-0.5-0.125s-0.355 0.046-0.506 0.128l0.006-0.003c-1.013 0.642-2.247 1.023-3.57 1.023s-2.557-0.381-3.598-1.039l0.028 0.016c-0.143-0.084-0.316-0.134-0.5-0.134s-0.357 0.050-0.505 0.137l0.005-0.003c-0.307 0.175-0.51 0.5-0.51 0.872 0 0.003 0 0.006 0 0.009v-0 3.22h-1.95c-0.932-1.736-1.631-3.753-1.984-5.886l-0.016-0.114c-0.134-0.637-0.211-1.37-0.211-2.12s0.077-1.483 0.223-2.19l-0.012 0.070c0.369-1.609 1.106-3.009 2.119-4.16l-0.009 0.010c1.067-1.156 2.414-2.038 3.934-2.541l0.066-0.019c0.692-0.235 1.519-0.434 2.37-0.56l0.081-0.010c0.664-0.117 1.429-0.184 2.209-0.184 0.335 0 0.666 0.012 0.995 0.037l-0.044-0.003q0.69 0.060 1.2 0.15c0.047 0.008 0.101 0.012 0.156 0.012 0.295 0 0.56-0.128 0.744-0.331l0.001-0.001 2.38-2.33 0.62 1.94c0.118 0.338 0.403 0.59 0.754 0.659l0.006 0.001c0.71 0.111 1.333 0.426 1.822 0.882l-0.002-0.002c0.512 0.57 0.869 1.29 0.997 2.086l0.003 0.024c0.131 1.101 0.72 2.043 1.568 2.642l0.012 0.008c0.429 0.239 0.941 0.38 1.485 0.38 0.125 0 0.248-0.007 0.369-0.022l-0.015 0.001z"></path>
<path d="M16 12h-6c-0.552 0-1 0.448-1 1s0.448 1 1 1v0h6c0.552 0 1-0.448 1-1s-0.448-1-1-1v0z"></path>
<path d="M22 12v0c-0.552 0-1 0.448-1 1s0.448 1 1 1c0.552 0 1-0.448 1-1v0c0-0.552-0.448-1-1-1v0z"></path>
</symbol>
<symbol id="icon-salary" viewBox="0 0 32 32">
<path d="M27.82 19.33c1.36-1.702 2.182-3.885 2.182-6.26 0-5.538-4.47-10.031-9.999-10.070l-0.004-0c-0.001 0-0.003 0-0.004 0-2.569 0-4.911 0.976-6.674 2.577l0.008-0.007c-0.229 0.185-0.374 0.465-0.374 0.78 0 0.552 0.448 1 1 1 0.28 0 0.532-0.115 0.714-0.3l0-0c1.408-1.262 3.279-2.034 5.33-2.034 4.418 0 8 3.582 8 8 0 0.012-0 0.024-0 0.036v-0.002c0 0.002 0 0.004 0 0.006 0 2.464-1.101 4.67-2.839 6.154l-0.011 0.009c-0.136 0.124-0.236 0.283-0.288 0.463l-0.002 0.007-4.73 1.13c-0.173 0.038-0.371 0.060-0.575 0.060s-0.402-0.022-0.593-0.063l0.018 0.003-3.070-0.59c-0.314-0.048-0.554-0.309-0.57-0.628l-0-0.002c0.021-0.364 0.321-0.651 0.689-0.651 0.014 0 0.029 0 0.043 0.001l-0.002-0h0.93c1.381 0 2.5-1.119 2.5-2.5s-1.119-2.5-2.5-2.5v0h-2.89c-0.678 0-1.332 0.106-1.945 0.303l0.045-0.012h-0.11c-0.060-0.376-0.096-0.812-0.1-1.256l-0-0.004c0-0.002 0-0.005 0-0.008 0-0.976 0.172-1.912 0.488-2.779l-0.018 0.056c0.037-0.1 0.058-0.216 0.058-0.337 0-0.433-0.276-0.802-0.661-0.941l-0.007-0.002c-0.099-0.036-0.212-0.056-0.331-0.056-0.429 0-0.795 0.27-0.937 0.649l-0.002 0.007c-0.374 1.013-0.59 2.184-0.59 3.404 0 0.034 0 0.067 0.001 0.101l-0-0.005c-0 0.009-0 0.019-0 0.029 0 0.616 0.058 1.218 0.17 1.801l-0.009-0.060s0 0.060 0 0.1l-2.26 0.71c-0.141-0.372-0.488-0.634-0.898-0.65l-0.002-0h-4c-0.552 0-1 0.448-1 1v0 5c0 0.552 0.448 1 1 1s1-0.448 1-1v0-4h2v9h-2v-1c0-0.552-0.448-1-1-1s-1 0.448-1 1v0 2c0 0.552 0.448 1 1 1v0h4c0.002 0 0.004 0 0.006 0 0.514 0 0.937-0.387 0.994-0.885l0-0.005 5.7 0.6c0.462 0.057 0.997 0.090 1.54 0.090h0.001c1.428-0.005 2.804-0.221 4.101-0.616l-0.101 0.026 3-0.88c0.458-0.097 0.797-0.499 0.797-0.979 0-0.096-0.014-0.19-0.039-0.278l0.002 0.007c-0.128-0.415-0.508-0.711-0.957-0.711-0.101 0-0.198 0.015-0.29 0.043l0.007-0.002-3 0.88c-1.051 0.322-2.26 0.508-3.512 0.508-0.457 0-0.909-0.025-1.353-0.073l0.055 0.005-5.95-0.63v-7.37l4.82-1.53c0.385-0.126 0.829-0.2 1.29-0.2h2.89c0.276 0 0.5 0.224 0.5 0.5s-0.224 0.5-0.5 0.5v0h-0.89c-0.051-0.004-0.111-0.006-0.172-0.006-1.458 0-2.64 1.182-2.64 2.64 0 1.332 0.986 2.433 2.268 2.614l0.014 0.002 3.060 0.58c0.301 0.067 0.646 0.105 1 0.105s0.699-0.038 1.032-0.111l-0.032 0.006 6.33-1.52c0.065-0.017 0.139-0.026 0.215-0.026 0.296 0 0.559 0.143 0.723 0.364l0.002 0.002c0.081 0.111 0.129 0.251 0.129 0.402 0 0.082-0.014 0.16-0.040 0.233l0.002-0.005c-0.090 0.247-0.293 0.433-0.544 0.499l-0.006 0.001-1.69 0.49c-0.494 0.071-0.87 0.492-0.87 1 0 0.558 0.452 1.010 1.010 1.010 0.049 0 0.098-0.004 0.145-0.010l-0.005 0.001c0.042 0.007 0.091 0.011 0.14 0.011s0.098-0.004 0.145-0.012l-0.005 0.001 1.7-0.49c0.872-0.265 1.554-0.912 1.864-1.74l0.006-0.020c0.096-0.265 0.151-0.571 0.151-0.89 0-0.581-0.184-1.119-0.497-1.558l0.006 0.008c-0.394-0.613-0.999-1.062-1.71-1.246l-0.020-0.004z"></path>
<path d="M20.44 12.83c-0.12 0.045-0.258 0.071-0.403 0.071-0.017 0-0.033-0-0.049-0.001l0.002 0h-0.25c-0.072-0.017-0.135-0.041-0.195-0.072l0.005 0.002-0.17-0.1-0.15-0.11c-0.032-0.006-0.068-0.010-0.105-0.010s-0.073 0.004-0.109 0.011l0.004-0.001h-1.56c-0.052 0.001-0.098 0.024-0.13 0.060l-0 0c-0.009 0.019-0.015 0.041-0.015 0.065s0.005 0.046 0.015 0.066l-0-0.001c0.004 0.275 0.085 0.53 0.223 0.746l-0.003-0.006c0.168 0.258 0.39 0.467 0.651 0.615l0.009 0.005c0.315 0.179 0.684 0.303 1.076 0.349l0.014 0.001v0.48c0.005 0.062 0.030 0.118 0.070 0.16l-0-0c0.041 0.037 0.095 0.060 0.155 0.060 0.002 0 0.004-0 0.005-0h1c0.002 0 0.003 0 0.005 0 0.060 0 0.114-0.023 0.155-0.060l-0 0c0.011-0.028 0.018-0.061 0.018-0.095 0-0.023-0.003-0.045-0.009-0.066l0 0.002v-0.58c0.394-0.068 0.747-0.194 1.068-0.369l-0.018 0.009c0.291-0.154 0.53-0.371 0.706-0.633l0.004-0.007c0.163-0.245 0.26-0.545 0.26-0.869 0-0.011-0-0.022-0-0.033l0 0.002c0.001-0.019 0.001-0.041 0.001-0.064 0-0.311-0.082-0.603-0.226-0.855l0.004 0.009c-0.18-0.259-0.429-0.459-0.719-0.576l-0.011-0.004c-0.387-0.165-0.835-0.279-1.304-0.319l-0.016-0.001-0.57-0.1c-0.103-0.022-0.194-0.063-0.272-0.121l0.002 0.001c-0.045-0.032-0.075-0.082-0.080-0.139l-0-0.001c0.003-0.072 0.042-0.134 0.099-0.169l0.001-0.001c0.074-0.039 0.162-0.062 0.256-0.062 0.016 0 0.031 0.001 0.046 0.002l-0.002-0c0.004-0 0.008-0 0.012-0 0.096 0 0.188 0.018 0.273 0.052l-0.005-0.002c0.061 0.027 0.114 0.061 0.161 0.101l-0.001-0.001 0.14 0.1c0.029 0.006 0.061 0.009 0.095 0.009s0.066-0.003 0.098-0.010l-0.003 0.001h1.64c0.018 0.007 0.038 0.011 0.060 0.011s0.042-0.004 0.061-0.011l-0.001 0c0.036-0.032 0.059-0.078 0.060-0.13v-0c-0.018-0.238-0.101-0.454-0.232-0.633l0.002 0.003c-0.161-0.245-0.365-0.449-0.602-0.605l-0.008-0.005c-0.287-0.185-0.622-0.324-0.981-0.397l-0.019-0.003v-0.6c-0.005-0.125-0.105-0.225-0.23-0.23l-0-0h-1c-0.125 0.005-0.225 0.105-0.23 0.229l-0 0v0.6c-0.52 0.074-0.977 0.305-1.331 0.641l0.001-0.001c-0.309 0.294-0.501 0.708-0.501 1.167 0 0.015 0 0.030 0.001 0.045l-0-0.002c-0.001 0.018-0.001 0.040-0.001 0.062 0 0.32 0.098 0.617 0.265 0.864l-0.003-0.005c0.183 0.261 0.43 0.467 0.719 0.596l0.011 0.004c0.329 0.141 0.71 0.247 1.108 0.298l0.022 0.002c0.251 0.030 0.469 0.069 0.682 0.118l-0.042-0.008c0.124 0.015 0.236 0.058 0.333 0.122l-0.003-0.002c0.057 0.033 0.095 0.091 0.1 0.159l0 0.001c0.030 0.080-0.030 0.13-0.14 0.17z"></path>
</symbol>
</defs>
</svg>
